<svg width="228" height="117" viewBox="0 0 228 117" fill="none" xmlns="http://www.w3.org/2000/svg">
<path d="M50.5643 99L58.8304 75.7485H54.9954L48.7596 94.4883H48.4857L42.2176 75.7485H38.286L46.6004 99H50.5643ZM68.49 99.3384C73.614 99.3384 76.7561 95.9062 76.7561 90.2183C76.7561 84.5625 73.5979 81.1143 68.49 81.1143C63.366 81.1143 60.2078 84.5625 60.2078 90.2183C60.2078 95.9062 63.3498 99.3384 68.49 99.3384ZM68.49 96.2607C65.4768 96.2607 63.7849 94.0532 63.7849 90.2183C63.7849 86.4155 65.4768 84.1919 68.49 84.1919C71.4871 84.1919 73.1951 86.4155 73.1951 90.2183C73.1951 94.0371 71.4871 96.2607 68.49 96.2607ZM81.3239 99H84.7721V81.4526H81.3239V99ZM83.048 78.375C84.3371 78.375 85.2878 77.4565 85.2878 76.2642C85.2878 75.0557 84.3371 74.1372 83.048 74.1372C81.7589 74.1372 80.8083 75.0557 80.8083 76.2642C80.8083 77.4565 81.7589 78.375 83.048 78.375ZM105.05 87.189C104.599 83.6763 101.941 81.1143 97.5416 81.1143C92.4337 81.1143 89.3238 84.5464 89.3238 90.1699C89.3238 95.8901 92.4498 99.3384 97.5577 99.3384C101.892 99.3384 104.599 96.8892 105.05 93.3604H101.683C101.232 95.2456 99.733 96.2446 97.5416 96.2446C94.6573 96.2446 92.8687 93.9727 92.8687 90.1699C92.8687 86.4316 94.6412 84.208 97.5416 84.208C99.8619 84.208 101.28 85.481 101.683 87.189H105.05ZM116.547 84.063C119.109 84.063 120.785 85.8516 120.865 88.6069H112.003C112.196 85.8677 113.985 84.063 116.547 84.063ZM120.849 94.2627C120.205 95.6323 118.771 96.3896 116.676 96.3896C113.904 96.3896 112.116 94.4399 112.003 91.3623V91.1689H124.394V89.9604C124.394 84.4497 121.445 81.1143 116.563 81.1143C111.616 81.1143 108.474 84.6753 108.474 90.2827C108.474 95.8901 111.552 99.3384 116.579 99.3384C120.591 99.3384 123.395 97.4048 124.185 94.2627H120.849ZM128.881 99H132.346V88.2686C132.346 86.0127 133.941 84.2886 136.052 84.2886C138.114 84.2886 139.435 85.4971 139.435 87.479V99H142.835V87.9624C142.835 85.8999 144.302 84.2886 146.541 84.2886C148.813 84.2886 149.941 85.4487 149.941 87.8174V99H153.406V86.915C153.406 83.2573 151.343 81.1143 147.798 81.1143C145.365 81.1143 143.351 82.355 142.465 84.2725H142.191C141.417 82.355 139.758 81.1143 137.357 81.1143C135.02 81.1143 133.248 82.2905 132.475 84.2725H132.217V81.4526H128.881V99ZM164.338 96.3735C162.453 96.3735 161.083 95.4551 161.083 93.876C161.083 92.3291 162.179 91.5073 164.596 91.3462L168.882 91.0723V92.5386C168.882 94.7139 166.949 96.3735 164.338 96.3735ZM163.452 99.29C165.756 99.29 167.674 98.291 168.721 96.5347H168.995V99H172.33V87.0117C172.33 83.3057 169.849 81.1143 165.45 81.1143C161.47 81.1143 158.634 83.0479 158.28 86.061H161.631C162.018 84.8203 163.355 84.1113 165.289 84.1113C167.658 84.1113 168.882 85.1587 168.882 87.0117V88.5264L164.129 88.8003C159.955 89.0581 157.603 90.8789 157.603 94.0371C157.603 97.2437 160.068 99.29 163.452 99.29ZM177.656 99H181.104V81.4526H177.656V99ZM179.38 78.375C180.669 78.375 181.619 77.4565 181.619 76.2642C181.619 75.0557 180.669 74.1372 179.38 74.1372C178.091 74.1372 177.14 75.0557 177.14 76.2642C177.14 77.4565 178.091 78.375 179.38 78.375ZM186.687 99H190.151V74.6045H186.687V99Z" fill="#64D2FF"/>
<path fill-rule="evenodd" clip-rule="evenodd" d="M109.455 43C111.664 40.4556 113 37.1338 113 33.5C113 25.4917 106.508 19 98.5 19C90.4922 19 84 25.4917 84 33.5C84 41.5083 90.4922 48 98.5 48C98.667 48 99 48 99 48H132C132 48 132.333 48 132.5 48C140.508 48 147 41.5083 147 33.5C147 25.4917 140.508 19 132.5 19C124.492 19 118 25.4917 118 33.5C118 37.1338 119.336 40.4556 121.545 43H109.455ZM98.5 43C103.747 43 108 38.7466 108 33.5C108 28.2534 103.747 24 98.5 24C93.2529 24 89 28.2534 89 33.5C89 38.7466 93.2529 43 98.5 43ZM132.5 43C137.747 43 142 38.7466 142 33.5C142 28.2534 137.747 24 132.5 24C127.253 24 123 28.2534 123 33.5C123 38.7466 127.253 43 132.5 43Z" fill="#64D2FF"/>
</svg>
