<svg width="228" height="117" viewBox="0 0 228 117" fill="none" xmlns="http://www.w3.org/2000/svg">
<rect width="228" height="117" rx="22" fill="#64D2FF"/>
<path d="M49.5643 99L57.8304 75.7485H53.9954L47.7596 94.4883H47.4857L41.2176 75.7485H37.286L45.6004 99H49.5643ZM67.49 99.3384C72.614 99.3384 75.7561 95.9062 75.7561 90.2183C75.7561 84.5625 72.5979 81.1143 67.49 81.1143C62.366 81.1143 59.2078 84.5625 59.2078 90.2183C59.2078 95.9062 62.3498 99.3384 67.49 99.3384ZM67.49 96.2607C64.4768 96.2607 62.7849 94.0532 62.7849 90.2183C62.7849 86.4155 64.4768 84.1919 67.49 84.1919C70.4871 84.1919 72.1951 86.4155 72.1951 90.2183C72.1951 94.0371 70.4871 96.2607 67.49 96.2607ZM80.3239 99H83.7721V81.4526H80.3239V99ZM82.048 78.375C83.3371 78.375 84.2878 77.4565 84.2878 76.2642C84.2878 75.0557 83.3371 74.1372 82.048 74.1372C80.7589 74.1372 79.8083 75.0557 79.8083 76.2642C79.8083 77.4565 80.7589 78.375 82.048 78.375ZM104.05 87.189C103.599 83.6763 100.941 81.1143 96.5416 81.1143C91.4337 81.1143 88.3238 84.5464 88.3238 90.1699C88.3238 95.8901 91.4498 99.3384 96.5577 99.3384C100.892 99.3384 103.599 96.8892 104.05 93.3604H100.683C100.232 95.2456 98.733 96.2446 96.5416 96.2446C93.6573 96.2446 91.8687 93.9727 91.8687 90.1699C91.8687 86.4316 93.6412 84.208 96.5416 84.208C98.8619 84.208 100.28 85.481 100.683 87.189H104.05ZM115.547 84.063C118.109 84.063 119.785 85.8516 119.865 88.6069H111.003C111.196 85.8677 112.985 84.063 115.547 84.063ZM119.849 94.2627C119.205 95.6323 117.771 96.3896 115.676 96.3896C112.904 96.3896 111.116 94.4399 111.003 91.3623V91.1689H123.394V89.9604C123.394 84.4497 120.445 81.1143 115.563 81.1143C110.616 81.1143 107.474 84.6753 107.474 90.2827C107.474 95.8901 110.552 99.3384 115.579 99.3384C119.591 99.3384 122.395 97.4048 123.185 94.2627H119.849ZM127.881 99H131.346V88.2686C131.346 86.0127 132.941 84.2886 135.052 84.2886C137.114 84.2886 138.435 85.4971 138.435 87.479V99H141.835V87.9624C141.835 85.8999 143.302 84.2886 145.541 84.2886C147.813 84.2886 148.941 85.4487 148.941 87.8174V99H152.406V86.915C152.406 83.2573 150.343 81.1143 146.798 81.1143C144.365 81.1143 142.351 82.355 141.465 84.2725H141.191C140.417 82.355 138.758 81.1143 136.357 81.1143C134.02 81.1143 132.248 82.2905 131.475 84.2725H131.217V81.4526H127.881V99ZM163.338 96.3735C161.453 96.3735 160.083 95.4551 160.083 93.876C160.083 92.3291 161.179 91.5073 163.596 91.3462L167.882 91.0723V92.5386C167.882 94.7139 165.949 96.3735 163.338 96.3735ZM162.452 99.29C164.756 99.29 166.674 98.291 167.721 96.5347H167.995V99H171.33V87.0117C171.33 83.3057 168.849 81.1143 164.45 81.1143C160.47 81.1143 157.634 83.0479 157.28 86.061H160.631C161.018 84.8203 162.355 84.1113 164.289 84.1113C166.658 84.1113 167.882 85.1587 167.882 87.0117V88.5264L163.129 88.8003C158.955 89.0581 156.603 90.8789 156.603 94.0371C156.603 97.2437 159.068 99.29 162.452 99.29ZM176.656 99H180.104V81.4526H176.656V99ZM178.38 78.375C179.669 78.375 180.619 77.4565 180.619 76.2642C180.619 75.0557 179.669 74.1372 178.38 74.1372C177.091 74.1372 176.14 75.0557 176.14 76.2642C176.14 77.4565 177.091 78.375 178.38 78.375ZM185.687 99H189.151V74.6045H185.687V99Z" fill="black"/>
<path fill-rule="evenodd" clip-rule="evenodd" d="M108.455 43C110.664 40.4556 112 37.1338 112 33.5C112 25.4917 105.508 19 97.5 19C89.4922 19 83 25.4917 83 33.5C83 41.5083 89.4922 48 97.5 48C97.667 48 98 48 98 48H131C131 48 131.333 48 131.5 48C139.508 48 146 41.5083 146 33.5C146 25.4917 139.508 19 131.5 19C123.492 19 117 25.4917 117 33.5C117 37.1338 118.336 40.4556 120.545 43H108.455ZM97.5 43C102.747 43 107 38.7466 107 33.5C107 28.2534 102.747 24 97.5 24C92.2529 24 88 28.2534 88 33.5C88 38.7466 92.2529 43 97.5 43ZM131.5 43C136.747 43 141 38.7466 141 33.5C141 28.2534 136.747 24 131.5 24C126.253 24 122 28.2534 122 33.5C122 38.7466 126.253 43 131.5 43Z" fill="black"/>
</svg>
