<svg width="228" height="117" viewBox="0 0 228 117" fill="none" xmlns="http://www.w3.org/2000/svg">
<path d="M112.104 5.66273C112.713 3.84291 115.287 3.84291 115.896 5.66273L121.8 23.2895C122.071 24.0985 122.825 24.6466 123.678 24.6542L142.266 24.8216C144.186 24.8389 144.981 27.2869 143.438 28.4289L128.499 39.4902C127.813 39.9979 127.525 40.8847 127.781 41.6985L133.366 59.4286C133.943 61.2591 131.86 62.7721 130.298 61.6581L115.161 50.8676C114.466 50.3724 113.534 50.3724 112.839 50.8676L97.7025 61.6581C96.1397 62.7721 94.0573 61.2591 94.6339 59.4286L100.219 41.6985C100.475 40.8847 100.187 39.9979 99.5013 39.4902L84.5615 28.4289C83.0191 27.2869 83.8145 24.8389 85.7336 24.8216L104.322 24.6542C105.175 24.6466 105.929 24.0985 106.2 23.2895L112.104 5.66273Z" fill="#64D2FF"/>
<path d="M46.7122 99V89.3643H56.7025V86.1738H46.7122V79.0356H57.6209V75.7485H43.1029V99H46.7122ZM66.9421 96.3735C65.0569 96.3735 63.6872 95.4551 63.6872 93.876C63.6872 92.3291 64.7829 91.5073 67.1999 91.3462L71.4861 91.0723V92.5386C71.4861 94.7139 69.5525 96.3735 66.9421 96.3735ZM66.0559 99.29C68.3601 99.29 70.2776 98.291 71.3249 96.5347H71.5989V99H74.9343V87.0117C74.9343 83.3057 72.4529 81.1143 68.0539 81.1143C64.074 81.1143 61.238 83.0479 60.8835 86.061H64.2351C64.6218 84.8203 65.9592 84.1113 67.8928 84.1113C70.2615 84.1113 71.4861 85.1587 71.4861 87.0117V88.5264L66.7327 88.8003C62.5593 89.0581 60.2068 90.8789 60.2068 94.0371C60.2068 97.2437 62.6721 99.29 66.0559 99.29ZM94.4713 81.4526H90.7975L86.4469 95.2939H86.173L81.8063 81.4526H78.1003L84.4328 99H88.1549L94.4713 81.4526ZM105.049 99.3384C110.173 99.3384 113.316 95.9062 113.316 90.2183C113.316 84.5625 110.157 81.1143 105.049 81.1143C99.9254 81.1143 96.7672 84.5625 96.7672 90.2183C96.7672 95.9062 99.9093 99.3384 105.049 99.3384ZM105.049 96.2607C102.036 96.2607 100.344 94.0532 100.344 90.2183C100.344 86.4155 102.036 84.1919 105.049 84.1919C108.046 84.1919 109.754 86.4155 109.754 90.2183C109.754 94.0371 108.046 96.2607 105.049 96.2607ZM117.819 99H121.283V88.6392C121.283 86.1738 123.136 84.5142 125.763 84.5142C126.375 84.5142 127.406 84.627 127.696 84.7236V81.3076C127.326 81.2109 126.665 81.1626 126.149 81.1626C123.861 81.1626 121.912 82.4194 121.412 84.1436H121.154V81.4526H117.819V99ZM131.426 99H134.874V81.4526H131.426V99ZM133.15 78.375C134.439 78.375 135.39 77.4565 135.39 76.2642C135.39 75.0557 134.439 74.1372 133.15 74.1372C131.861 74.1372 130.911 75.0557 130.911 76.2642C130.911 77.4565 131.861 78.375 133.15 78.375ZM141.521 77.0859V81.5332H138.733V84.4497H141.521V94.3594C141.521 97.7432 143.052 99.0967 146.903 99.0967C147.579 99.0967 148.224 99.0161 148.788 98.9194V96.0352C148.305 96.0835 147.998 96.1157 147.467 96.1157C145.743 96.1157 144.985 95.3101 144.985 93.4731V84.4497H148.788V81.5332H144.985V77.0859H141.521ZM160.204 84.063C162.766 84.063 164.442 85.8516 164.522 88.6069H155.66C155.853 85.8677 157.642 84.063 160.204 84.063ZM164.506 94.2627C163.862 95.6323 162.427 96.3896 160.333 96.3896C157.561 96.3896 155.773 94.4399 155.66 91.3623V91.1689H168.051V89.9604C168.051 84.4497 165.102 81.1143 160.22 81.1143C155.273 81.1143 152.131 84.6753 152.131 90.2827C152.131 95.8901 155.209 99.3384 160.236 99.3384C164.248 99.3384 167.052 97.4048 167.842 94.2627H164.506ZM172.135 86.4155C172.135 89.0259 173.682 90.5244 177.018 91.314L180.079 92.0229C181.836 92.4419 182.657 93.1187 182.657 94.166C182.657 95.5679 181.127 96.5347 178.967 96.5347C176.873 96.5347 175.584 95.6968 175.149 94.3433H171.684C171.99 97.4531 174.714 99.3384 178.887 99.3384C183.076 99.3384 186.154 97.1309 186.154 93.8276C186.154 91.2495 184.591 89.8154 181.256 89.042L178.339 88.3652C176.438 87.9302 175.551 87.2695 175.551 86.2222C175.551 84.8525 177.018 83.9341 178.951 83.9341C180.917 83.9341 182.174 84.7559 182.496 86.0449H185.816C185.477 82.9512 182.899 81.1143 178.951 81.1143C174.987 81.1143 172.135 83.3057 172.135 86.4155Z" fill="#64D2FF"/>
</svg>
