<svg width="228" height="117" viewBox="0 0 228 117" fill="none" xmlns="http://www.w3.org/2000/svg">
<path fill-rule="evenodd" clip-rule="evenodd" d="M114 63C130.016 63 143 50.0163 143 34C143 17.9837 130.016 5 114 5C97.9837 5 85 17.9837 85 34C85 50.0163 97.9837 63 114 63ZM112 14C112 12.8954 112.895 12 114 12C115.105 12 116 12.8954 116 14V36V38H114H112H99C97.8954 38 97 37.1046 97 36C97 34.8954 97.8954 34 99 34H112V14Z" fill="#9C9C9C"/>
<path d="M55.7117 78.9229H60.8035C63.5911 78.9229 65.2991 80.4536 65.2991 82.9834C65.2991 85.5776 63.6877 87.0601 60.9001 87.0601H55.7117V78.9229ZM55.7117 90.1377H60.8035L65.5408 99H69.7141L64.4934 89.5415C67.3293 88.5747 69.0051 86.0288 69.0051 82.9028C69.0051 78.5361 65.9919 75.7485 61.303 75.7485H52.1023V99H55.7117V90.1377ZM80.7594 84.063C83.3214 84.063 84.9972 85.8516 85.0778 88.6069H76.2155C76.4088 85.8677 78.1974 84.063 80.7594 84.063ZM85.0617 94.2627C84.4172 95.6323 82.9831 96.3896 80.8883 96.3896C78.1169 96.3896 76.3283 94.4399 76.2155 91.3623V91.1689H88.6066V89.9604C88.6066 84.4497 85.6579 81.1143 80.7755 81.1143C75.8288 81.1143 72.6867 84.6753 72.6867 90.2827C72.6867 95.8901 75.7643 99.3384 80.7917 99.3384C84.8039 99.3384 87.6076 97.4048 88.3971 94.2627H85.0617ZM107.95 87.189C107.499 83.6763 104.84 81.1143 100.441 81.1143C95.3336 81.1143 92.2237 84.5464 92.2237 90.1699C92.2237 95.8901 95.3497 99.3384 100.458 99.3384C104.792 99.3384 107.499 96.8892 107.95 93.3604H104.583C104.131 95.2456 102.633 96.2446 100.441 96.2446C97.5572 96.2446 95.7686 93.9727 95.7686 90.1699C95.7686 86.4316 97.5411 84.208 100.441 84.208C102.762 84.208 104.18 85.481 104.583 87.189H107.95ZM119.447 84.063C122.009 84.063 123.685 85.8516 123.765 88.6069H114.903C115.096 85.8677 116.885 84.063 119.447 84.063ZM123.749 94.2627C123.104 95.6323 121.67 96.3896 119.576 96.3896C116.804 96.3896 115.016 94.4399 114.903 91.3623V91.1689H127.294V89.9604C127.294 84.4497 124.345 81.1143 119.463 81.1143C114.516 81.1143 111.374 84.6753 111.374 90.2827C111.374 95.8901 114.452 99.3384 119.479 99.3384C123.491 99.3384 126.295 97.4048 127.084 94.2627H123.749ZM131.781 99H135.246V88.7358C135.246 85.9966 136.873 84.2886 139.435 84.2886C141.997 84.2886 143.222 85.6904 143.222 88.5103V99H146.686V87.6401C146.686 83.4668 144.527 81.1143 140.611 81.1143C137.969 81.1143 136.228 82.2905 135.374 84.2402H135.117V81.4526H131.781V99ZM153.123 77.0859V81.5332H150.335V84.4497H153.123V94.3594C153.123 97.7432 154.654 99.0967 158.505 99.0967C159.181 99.0967 159.826 99.0161 160.39 98.9194V96.0352C159.907 96.0835 159.6 96.1157 159.069 96.1157C157.345 96.1157 156.587 95.3101 156.587 93.4731V84.4497H160.39V81.5332H156.587V77.0859H153.123ZM164.136 86.4155C164.136 89.0259 165.683 90.5244 169.018 91.314L172.08 92.0229C173.836 92.4419 174.658 93.1187 174.658 94.166C174.658 95.5679 173.127 96.5347 170.968 96.5347C168.873 96.5347 167.584 95.6968 167.149 94.3433H163.685C163.991 97.4531 166.714 99.3384 170.887 99.3384C175.077 99.3384 178.155 97.1309 178.155 93.8276C178.155 91.2495 176.592 89.8154 173.256 89.042L170.34 88.3652C168.438 87.9302 167.552 87.2695 167.552 86.2222C167.552 84.8525 169.018 83.9341 170.952 83.9341C172.918 83.9341 174.175 84.7559 174.497 86.0449H177.816C177.478 82.9512 174.9 81.1143 170.952 81.1143C166.988 81.1143 164.136 83.3057 164.136 86.4155Z" fill="#9C9C9C"/>
</svg>
