<svg width="228" height="117" viewBox="0 0 228 117" fill="none" xmlns="http://www.w3.org/2000/svg">
<rect width="228" height="117" rx="22" fill="#64D2FF"/>
<path d="M102 12.5C102 16.6421 98.6422 20 94.5 20C90.3578 20 87 16.6421 87 12.5C87 8.35791 90.3578 5 94.5 5C98.6422 5 102 8.35791 102 12.5Z" fill="black"/>
<path d="M102 31.5C102 35.6421 98.6422 39 94.5 39C90.3578 39 87 35.6421 87 31.5C87 27.3579 90.3578 24 94.5 24C98.6422 24 102 27.3579 102 31.5Z" fill="black"/>
<path d="M94.5 58C98.6422 58 102 54.6421 102 50.5C102 46.3579 98.6422 43 94.5 43C90.3578 43 87 46.3579 87 50.5C87 54.6421 90.3578 58 94.5 58Z" fill="black"/>
<path d="M122 12.5C122 16.6421 118.642 20 114.5 20C110.358 20 107 16.6421 107 12.5C107 8.35791 110.358 5 114.5 5C118.642 5 122 8.35791 122 12.5Z" fill="black"/>
<path d="M114.5 39C118.642 39 122 35.6421 122 31.5C122 27.3579 118.642 24 114.5 24C110.358 24 107 27.3579 107 31.5C107 35.6421 110.358 39 114.5 39Z" fill="black"/>
<path d="M122 50.5C122 54.6421 118.642 58 114.5 58C110.358 58 107 54.6421 107 50.5C107 46.3579 110.358 43 114.5 43C118.642 43 122 46.3579 122 50.5Z" fill="black"/>
<path d="M133.5 20C137.642 20 141 16.6421 141 12.5C141 8.35791 137.642 5 133.5 5C129.358 5 126 8.35791 126 12.5C126 16.6421 129.358 20 133.5 20Z" fill="black"/>
<path d="M141 31.5C141 35.6421 137.642 39 133.5 39C129.358 39 126 35.6421 126 31.5C126 27.3579 129.358 24 133.5 24C137.642 24 141 27.3579 141 31.5Z" fill="black"/>
<path d="M133.5 58C137.642 58 141 54.6421 141 50.5C141 46.3579 137.642 43 133.5 43C129.358 43 126 46.3579 126 50.5C126 54.6421 129.358 58 133.5 58Z" fill="black"/>
<path d="M60.5329 98V90.3623L63.1433 87.4458L70.9421 98H75.4538L65.6892 84.8516L74.6804 74.7485H70.4104L60.7907 85.6411H60.5329V74.7485H56.9235V98H60.5329ZM85.0651 83.063C87.6271 83.063 89.3029 84.8516 89.3834 87.6069H80.5211C80.7145 84.8677 82.503 83.063 85.0651 83.063ZM89.3673 93.2627C88.7228 94.6323 87.2887 95.3896 85.194 95.3896C82.4225 95.3896 80.6339 93.4399 80.5211 90.3623V90.1689H92.9122V88.9604C92.9122 83.4497 89.9635 80.1143 85.0812 80.1143C80.1344 80.1143 76.9923 83.6753 76.9923 89.2827C76.9923 94.8901 80.0699 98.3384 85.0973 98.3384C89.1095 98.3384 91.9132 96.4048 92.7028 93.2627H89.3673ZM98.753 104.365C102.33 104.365 103.99 102.995 105.488 98.7251L112.03 80.4526H108.356L103.974 94.3906H103.7L99.3008 80.4526H95.5303L101.879 98.0645L101.621 98.9185C101.025 100.691 100.09 101.368 98.4468 101.368C98.1245 101.368 97.5928 101.352 97.3189 101.303V104.284C97.6412 104.333 98.4629 104.365 98.753 104.365ZM125.009 80.1626C122.624 80.1626 120.562 81.355 119.498 83.353H119.241V80.4526H115.905V103.833H119.37V95.3413H119.644C120.562 97.1943 122.544 98.29 125.041 98.29C129.473 98.29 132.292 94.7935 132.292 89.2183C132.292 83.6431 129.473 80.1626 125.009 80.1626ZM124.026 95.1802C121.126 95.1802 119.305 92.8921 119.305 89.2344C119.305 85.5605 121.126 83.2725 124.042 83.2725C126.975 83.2725 128.731 85.5122 128.731 89.2183C128.731 92.9404 126.975 95.1802 124.026 95.1802ZM142.532 95.3735C140.647 95.3735 139.277 94.4551 139.277 92.876C139.277 91.3291 140.373 90.5073 142.79 90.3462L147.076 90.0723V91.5386C147.076 93.7139 145.142 95.3735 142.532 95.3735ZM141.646 98.29C143.95 98.29 145.868 97.291 146.915 95.5347H147.189V98H150.524V86.0117C150.524 82.3057 148.043 80.1143 143.644 80.1143C139.664 80.1143 136.828 82.0479 136.474 85.061H139.825C140.212 83.8203 141.549 83.1113 143.483 83.1113C145.851 83.1113 147.076 84.1587 147.076 86.0117V87.5264L142.323 87.8003C138.149 88.0581 135.797 89.8789 135.797 93.0371C135.797 96.2437 138.262 98.29 141.646 98.29ZM162.198 98.29C164.615 98.29 166.661 97.146 167.709 95.2285H167.983V98H171.302V73.6045H167.838V83.2402H167.58C166.629 81.3066 164.599 80.1626 162.198 80.1626C157.767 80.1626 154.915 83.6753 154.915 89.2183C154.915 94.7773 157.735 98.29 162.198 98.29ZM163.181 83.2725C166.081 83.2725 167.902 85.5767 167.902 89.2344C167.902 92.9082 166.097 95.1802 163.181 95.1802C160.248 95.1802 158.492 92.9404 158.492 89.2183C158.492 85.5283 160.264 83.2725 163.181 83.2725Z" fill="black"/>
</svg>
