<svg width="228" height="117" viewBox="0 0 228 117" fill="none" xmlns="http://www.w3.org/2000/svg">
<circle cx="95.5" cy="13.5" r="7.5" fill="#9C9C9C"/>
<circle cx="95.5" cy="32.5" r="7.5" fill="#9C9C9C"/>
<circle cx="95.5" cy="51.5" r="7.5" fill="#9C9C9C"/>
<circle cx="114.5" cy="13.5" r="7.5" fill="#9C9C9C"/>
<circle cx="114.5" cy="32.5" r="7.5" fill="#9C9C9C"/>
<circle cx="114.5" cy="51.5" r="7.5" fill="#9C9C9C"/>
<circle cx="133.5" cy="13.5" r="7.5" fill="#9C9C9C"/>
<circle cx="133.5" cy="32.5" r="7.5" fill="#9C9C9C"/>
<circle cx="133.5" cy="51.5" r="7.5" fill="#9C9C9C"/>
<path d="M59.5329 99V91.3623L62.1433 88.4458L69.9421 99H74.4538L64.6892 85.8516L73.6804 75.7485H69.4104L59.7907 86.6411H59.5329V75.7485H55.9235V99H59.5329ZM84.0651 84.063C86.6271 84.063 88.3029 85.8516 88.3834 88.6069H79.5211C79.7145 85.8677 81.503 84.063 84.0651 84.063ZM88.3673 94.2627C87.7228 95.6323 86.2887 96.3896 84.194 96.3896C81.4225 96.3896 79.6339 94.4399 79.5211 91.3623V91.1689H91.9122V89.9604C91.9122 84.4497 88.9635 81.1143 84.0812 81.1143C79.1344 81.1143 75.9923 84.6753 75.9923 90.2827C75.9923 95.8901 79.0699 99.3384 84.0973 99.3384C88.1095 99.3384 90.9132 97.4048 91.7028 94.2627H88.3673ZM97.753 105.365C101.33 105.365 102.99 103.995 104.488 99.7251L111.03 81.4526H107.356L102.974 95.3906H102.7L98.3008 81.4526H94.5303L100.879 99.0645L100.621 99.9185C100.025 101.691 99.0904 102.368 97.4468 102.368C97.1245 102.368 96.5928 102.352 96.3189 102.303V105.284C96.6412 105.333 97.4629 105.365 97.753 105.365ZM124.009 81.1626C121.624 81.1626 119.562 82.355 118.498 84.353H118.241V81.4526H114.905V104.833H118.37V96.3413H118.644C119.562 98.1943 121.544 99.29 124.041 99.29C128.473 99.29 131.292 95.7935 131.292 90.2183C131.292 84.6431 128.473 81.1626 124.009 81.1626ZM123.026 96.1802C120.126 96.1802 118.305 93.8921 118.305 90.2344C118.305 86.5605 120.126 84.2725 123.042 84.2725C125.975 84.2725 127.731 86.5122 127.731 90.2183C127.731 93.9404 125.975 96.1802 123.026 96.1802ZM141.532 96.3735C139.647 96.3735 138.277 95.4551 138.277 93.876C138.277 92.3291 139.373 91.5073 141.79 91.3462L146.076 91.0723V92.5386C146.076 94.7139 144.142 96.3735 141.532 96.3735ZM140.646 99.29C142.95 99.29 144.868 98.291 145.915 96.5347H146.189V99H149.524V87.0117C149.524 83.3057 147.043 81.1143 142.644 81.1143C138.664 81.1143 135.828 83.0479 135.474 86.061H138.825C139.212 84.8203 140.549 84.1113 142.483 84.1113C144.851 84.1113 146.076 85.1587 146.076 87.0117V88.5264L141.323 88.8003C137.149 89.0581 134.797 90.8789 134.797 94.0371C134.797 97.2437 137.262 99.29 140.646 99.29ZM161.198 99.29C163.615 99.29 165.661 98.146 166.709 96.2285H166.983V99H170.302V74.6045H166.838V84.2402H166.58C165.629 82.3066 163.599 81.1626 161.198 81.1626C156.767 81.1626 153.915 84.6753 153.915 90.2183C153.915 95.7773 156.735 99.29 161.198 99.29ZM162.181 84.2725C165.081 84.2725 166.902 86.5767 166.902 90.2344C166.902 93.9082 165.097 96.1802 162.181 96.1802C159.248 96.1802 157.492 93.9404 157.492 90.2183C157.492 86.5283 159.264 84.2725 162.181 84.2725Z" fill="#9C9C9C"/>
</svg>
