<svg width="228" height="117" viewBox="0 0 228 117" fill="none" xmlns="http://www.w3.org/2000/svg">
<mask id="mask0_2_258" style="mask-type:alpha" maskUnits="userSpaceOnUse" x="89" y="8" width="51" height="51">
<circle cx="114.5" cy="33.5" r="25.5" fill="#C4C4C4"/>
</mask>
<g mask="url(#mask0_2_258)">
<circle cx="114.5" cy="33.5" r="24" stroke="#9C9C9C" stroke-width="3"/>
<ellipse cx="114.5" cy="28" rx="8.5" ry="10" fill="#9C9C9C"/>
<ellipse cx="114.5" cy="54.5" rx="18.5" ry="12.5" fill="#9C9C9C"/>
</g>
<path d="M53.8064 99.564C58.9949 99.564 62.8138 96.5024 63.4583 91.9102H59.865C59.2205 94.5366 56.8841 96.1963 53.8064 96.1963C49.617 96.1963 47.0066 92.7964 47.0066 87.3823C47.0066 81.9521 49.617 78.5522 53.7903 78.5522C56.8518 78.5522 59.1883 80.3892 59.865 83.2412H63.4583C62.8782 78.5039 58.9143 75.1846 53.7903 75.1846C47.3289 75.1846 43.3167 79.8413 43.3167 87.3823C43.3167 94.9072 47.345 99.564 53.8064 99.564ZM75.551 99.3384C80.675 99.3384 83.8171 95.9062 83.8171 90.2183C83.8171 84.5625 80.6589 81.1143 75.551 81.1143C70.427 81.1143 67.2688 84.5625 67.2688 90.2183C67.2688 95.9062 70.4108 99.3384 75.551 99.3384ZM75.551 96.2607C72.5378 96.2607 70.8459 94.0532 70.8459 90.2183C70.8459 86.4155 72.5378 84.1919 75.551 84.1919C78.548 84.1919 80.2561 86.4155 80.2561 90.2183C80.2561 94.0371 78.548 96.2607 75.551 96.2607ZM88.3204 99H91.7848V88.7358C91.7848 85.9966 93.4122 84.2886 95.9742 84.2886C98.5363 84.2886 99.7609 85.6904 99.7609 88.5103V99H103.225V87.6401C103.225 83.4668 101.066 81.1143 97.1505 81.1143C94.5079 81.1143 92.7677 82.2905 91.9137 84.2402H91.6559V81.4526H88.3204V99ZM109.662 77.0859V81.5332H106.875V84.4497H109.662V94.3594C109.662 97.7432 111.193 99.0967 115.044 99.0967C115.721 99.0967 116.365 99.0161 116.929 98.9194V96.0352C116.446 96.0835 116.14 96.1157 115.608 96.1157C113.884 96.1157 113.127 95.3101 113.127 93.4731V84.4497H116.929V81.5332H113.127V77.0859H109.662ZM127.072 96.3735C125.187 96.3735 123.817 95.4551 123.817 93.876C123.817 92.3291 124.913 91.5073 127.33 91.3462L131.616 91.0723V92.5386C131.616 94.7139 129.683 96.3735 127.072 96.3735ZM126.186 99.29C128.49 99.29 130.408 98.291 131.455 96.5347H131.729V99H135.064V87.0117C135.064 83.3057 132.583 81.1143 128.184 81.1143C124.204 81.1143 121.368 83.0479 121.014 86.061H124.365C124.752 84.8203 126.089 84.1113 128.023 84.1113C130.392 84.1113 131.616 85.1587 131.616 87.0117V88.5264L126.863 88.8003C122.689 89.0581 120.337 90.8789 120.337 94.0371C120.337 97.2437 122.802 99.29 126.186 99.29ZM155.182 87.189C154.73 83.6763 152.072 81.1143 147.673 81.1143C142.565 81.1143 139.455 84.5464 139.455 90.1699C139.455 95.8901 142.581 99.3384 147.689 99.3384C152.023 99.3384 154.73 96.8892 155.182 93.3604H151.814C151.363 95.2456 149.864 96.2446 147.673 96.2446C144.788 96.2446 143 93.9727 143 90.1699C143 86.4316 144.772 84.208 147.673 84.208C149.993 84.208 151.411 85.481 151.814 87.189H155.182ZM160.958 77.0859V81.5332H158.17V84.4497H160.958V94.3594C160.958 97.7432 162.489 99.0967 166.34 99.0967C167.016 99.0967 167.661 99.0161 168.225 98.9194V96.0352C167.742 96.0835 167.435 96.1157 166.904 96.1157C165.179 96.1157 164.422 95.3101 164.422 93.4731V84.4497H168.225V81.5332H164.422V77.0859H160.958ZM171.971 86.4155C171.971 89.0259 173.518 90.5244 176.853 91.314L179.915 92.0229C181.671 92.4419 182.493 93.1187 182.493 94.166C182.493 95.5679 180.962 96.5347 178.803 96.5347C176.708 96.5347 175.419 95.6968 174.984 94.3433H171.52C171.826 97.4531 174.549 99.3384 178.722 99.3384C182.912 99.3384 185.989 97.1309 185.989 93.8276C185.989 91.2495 184.426 89.8154 181.091 89.042L178.175 88.3652C176.273 87.9302 175.387 87.2695 175.387 86.2222C175.387 84.8525 176.853 83.9341 178.787 83.9341C180.753 83.9341 182.009 84.7559 182.332 86.0449H185.651C185.313 82.9512 182.735 81.1143 178.787 81.1143C174.823 81.1143 171.971 83.3057 171.971 86.4155Z" fill="#9C9C9C"/>
</svg>
