<svg xmlns="http://www.w3.org/2000/svg" width="180" height="180" fill="none" viewBox="0 0 180 180">
  <path fill="url(#a)"
    d="M0 64c0-22.402 0-33.603 4.36-42.16A40 40 0 0 1 21.84 4.36C30.397 0 41.598 0 64 0h52c22.402 0 33.603 0 42.16 4.36a40.001 40.001 0 0 1 17.48 17.48C180 30.397 180 41.598 180 64v52c0 22.402 0 33.603-4.36 42.16a40.003 40.003 0 0 1-17.48 17.48C149.603 180 138.402 180 116 180H64c-22.402 0-33.603 0-42.16-4.36a40.001 40.001 0 0 1-17.48-17.48C0 149.603 0 138.402 0 116V64Z" />
  <path fill="#fff" fill-rule="evenodd"
    d="M29 133V53s10-12 30-12 29 18 29 18v83c0-8-15-20-30-20s-29 11-29 11Zm124 0V53s-10-12-30-12-29 18-29 18v83c0-8 15-20 30-20s29 11 29 11Z"
    clip-rule="evenodd" />
  <defs>
    <linearGradient id="a" x1="90" x2="90" y1="0" y2="180" gradientUnits="userSpaceOnUse">
      <stop stop-color="#FE9D04" />
      <stop offset="1" stop-color="#FA7019" />
    </linearGradient>
  </defs>
</svg>