<svg xmlns="http://www.w3.org/2000/svg" width="180" height="180" fill="none" viewBox="0 0 180 180">
  <path fill="#fff"
    d="M0 64c0-22.402 0-33.603 4.36-42.16A40 40 0 0 1 21.84 4.36C30.397 0 41.598 0 64 0h52c22.402 0 33.603 0 42.16 4.36a40.001 40.001 0 0 1 17.48 17.48C180 30.397 180 41.598 180 64v52c0 22.402 0 33.603-4.36 42.16a40.003 40.003 0 0 1-17.48 17.48C149.603 180 138.402 180 116 180H64c-22.402 0-33.603 0-42.16-4.36a40.001 40.001 0 0 1-17.48-17.48C0 149.603 0 138.402 0 116V64Z" />
  <path fill="#FF3B3A"
    d="M52.922 47H48V21.635h6.258l7.014 17.05h.316l7.031-17.05h6.24V47h-4.921V30.037h-.282l-6.45 15.504h-3.534l-6.469-15.504h-.281V47Zm38.642-26.016c3.75 0 6.714 1.196 8.894 3.586 2.191 2.39 3.287 5.637 3.287 9.739 0 4.113-1.096 7.365-3.287 9.756-2.18 2.39-5.144 3.585-8.894 3.585-3.762 0-6.739-1.195-8.93-3.585-2.192-2.391-3.287-5.643-3.287-9.756 0-4.102 1.101-7.348 3.304-9.739 2.204-2.39 5.174-3.586 8.913-3.586Zm4.921 7.014c-1.218-1.57-2.859-2.355-4.921-2.355-2.063 0-3.71.785-4.94 2.355-1.23 1.559-1.846 3.662-1.846 6.31 0 2.649.61 4.758 1.828 6.329 1.231 1.57 2.883 2.355 4.958 2.355 2.062 0 3.703-.785 4.921-2.355 1.23-1.57 1.846-3.68 1.846-6.328 0-2.649-.615-4.752-1.846-6.311ZM113.313 47h-5.081V21.635h4.43l11.672 15.802h.316V21.636h5.081V47h-4.395l-11.707-15.873h-.316V47Z" />
  <path fill="#262626"
    d="M41 90.197c.036-4.444 1.102-8.437 3.198-11.978 2.132-3.54 5.058-6.287 8.78-8.238C56.7 67.994 60.891 67 65.552 67c6.865 0 12.629 2.096 17.29 6.287 4.66 4.155 6.992 9.304 6.992 15.447 0 4.047-1.157 8.04-3.47 11.978-2.312 3.938-6.684 9.34-13.115 16.205L52.11 139.464v.651h39.674v6.72h-50.35v-5.203l27.316-29.538c5.456-5.854 9.087-10.316 10.894-13.387 1.843-3.108 2.764-6.342 2.764-9.702 0-4.372-1.644-8.04-4.932-11.003-3.252-2.999-7.28-4.498-12.086-4.498-5.023 0-9.124 1.554-12.304 4.661-3.18 3.071-4.805 7.082-4.877 12.032v.054H41v-.054Zm83.59 56.638v-70.08h-.704c-.723.434-4.137 2.783-10.244 7.047-6.07 4.227-9.449 6.576-10.135 7.046v-7.86c.217-.144 1.951-1.354 5.203-3.63a962.983 962.983 0 0 1 9.647-6.667c3.216-2.204 5.294-3.595 6.233-4.173h7.371v78.317h-7.371Z" />
</svg>