<svg xmlns="http://www.w3.org/2000/svg" width="180" height="180" fill="none" viewBox="0 0 180 180">
  <path fill="url(#a)"
    d="M0 64c0-22.402 0-33.603 4.36-42.16A40 40 0 0 1 21.84 4.36C30.397 0 41.598 0 64 0h52c22.402 0 33.603 0 42.16 4.36a40.001 40.001 0 0 1 17.48 17.48C180 30.397 180 41.598 180 64v52c0 22.402 0 33.603-4.36 42.16a40.003 40.003 0 0 1-17.48 17.48C149.603 180 138.402 180 116 180H64c-22.402 0-33.603 0-42.16-4.36a40.001 40.001 0 0 1-17.48-17.48C0 149.603 0 138.402 0 116V64Z" />
  <path fill="#fff"
    d="M102.399 115.71s-4.242 1.414-21.92-16.263C62.8 81.769 64.216 77.527 64.216 77.527c.47-3.3 2.357-7.072 5.656-11.314 2.357-3.3.707-9.193-4.95-17.678-1.255-1.883-2.355-3.611-3.352-5.176-5.737-9.01-8.012-12.581-16.446-8.966-9.9 4.242-12.728 9.9-12.021 17.678 2.121 17.677 13.906 39.362 34.648 60.104 20.742 20.741 42.426 32.527 60.104 34.648 7.778.707 13.435-2.121 17.678-12.021 3.615-8.435.043-10.709-8.966-16.447a283.91 283.91 0 0 1-5.176-3.352c-8.486-5.657-14.378-7.307-17.678-4.95-4.243 3.3-8.014 5.186-11.314 5.657Z" />
  <defs>
    <linearGradient id="a" x1="90" x2="90" y1="0" y2="180" gradientUnits="userSpaceOnUse">
      <stop stop-color="#5CF676" />
      <stop offset="1" stop-color="#0BBA27" />
    </linearGradient>
  </defs>
</svg>