<svg xmlns="http://www.w3.org/2000/svg" width="180" height="180" fill="none" viewBox="0 0 180 180">
  <mask id="b" width="180" height="180" x="0" y="0" maskUnits="userSpaceOnUse"
    style="mask-type:alpha">
    <rect width="180" height="180" fill="url(#a)" rx="40" />
  </mask>
  <g mask="url(#b)">
    <rect width="180" height="180" fill="url(#c)" rx="40" />
    <g filter="url(#d)">
      <circle cx="180" r="78.5" stroke="#F3F0EA" stroke-width="37" />
    </g>
    <path fill="#FFD633" stroke="#FDAD1C" stroke-width="3"
      d="m-25.07 56.624 23.416-33.656 186.761 129.933-23.415 33.657z" />
    <path stroke="#0079DC" stroke-width="3"
      d="m161.767 114.209-1.015-1.52-1.293 1.291c-.575.576-1.675 1.114-3.43 1.516-2.079.476-4.912.725-8.477.725-3.496 0-6.632-.568-9.117-1.443-2.219-.783-3.853-1.788-4.779-2.794l-1.104-1.199-1.103 1.199c-.926 1.006-2.56 2.011-4.779 2.794-2.485.875-5.621 1.443-9.118 1.443-3.564 0-6.397-.249-8.476-.725-1.755-.402-2.855-.94-3.43-1.516l-1.293-1.291-1.015 1.52c-1.659 2.483-4.403 8.099-4.784 14.956-.256 4.606.249 13.203 4.824 20.999 4.549 7.754 13.024 16.055 29.174 16.055 16.151 0 24.626-8.301 29.175-16.055 4.575-7.796 5.08-16.393 4.824-20.999-.381-6.857-3.125-12.473-4.784-14.956Z" />
    <path fill="url(#e)" fill-rule="evenodd" stroke="#fff" stroke-width="2"
      d="M132.552 164.719c15.501 0 23.536-7.907 27.882-15.314 4.369-7.445 4.866-15.71 4.619-20.157-.363-6.533-2.989-11.894-4.533-14.206-.876.874-2.309 1.493-4.156 1.916-2.235.512-5.194.763-8.812.763-3.651 0-6.958-.592-9.616-1.529-2.347-.827-4.231-1.94-5.384-3.192-1.152 1.252-3.036 2.365-5.383 3.192-2.658.937-5.965 1.529-9.617 1.529-3.617 0-6.576-.251-8.811-.763-1.847-.423-3.28-1.042-4.156-1.916-1.544 2.312-4.17 7.673-4.533 14.206-.247 4.447.25 12.712 4.619 20.157 4.346 7.407 12.381 15.314 27.881 15.314Z"
      clip-rule="evenodd" />
    <path fill="#fff"
      d="M114 137.696c0-1.381.479-2.508 1.436-3.384.963-.874 2.204-1.312 3.722-1.312 1.463 0 2.666.4 3.609 1.2.95.8 1.425 1.818 1.425 3.055 0 .793-.239 1.579-.717 2.359-.479.772-1.347 1.781-2.605 3.025l-3.097 3.107v.174h6.645v2.246h-10.274v-1.836l4.932-5.045c1.011-1.025 1.685-1.794 2.02-2.307.335-.52.502-1.039.502-1.559 0-.649-.239-1.186-.718-1.609-.471-.424-1.073-.636-1.804-.636-.773 0-1.398.232-1.877.697-.478.465-.718 1.073-.718 1.825v.041H114v-.041Zm18.573 10.839c-1.696 0-3.076-.4-4.143-1.2-1.059-.807-1.589-1.849-1.589-3.127 0-.937.29-1.747.871-2.431.581-.69 1.357-1.138 2.328-1.343v-.174c-.786-.192-1.418-.581-1.897-1.169-.472-.595-.708-1.289-.708-2.082 0-1.169.482-2.129 1.446-2.881.964-.752 2.198-1.128 3.702-1.128s2.734.376 3.691 1.128c.964.752 1.446 1.712 1.446 2.881 0 .793-.236 1.484-.707 2.072-.465.587-1.094.981-1.887 1.179v.174c.964.178 1.736.612 2.317 1.302.588.684.882 1.504.882 2.461 0 1.285-.533 2.331-1.599 3.138-1.06.8-2.444 1.2-4.153 1.2Zm.01-2.061c.889 0 1.61-.229 2.164-.687.56-.465.84-1.067.84-1.805s-.28-1.336-.84-1.794c-.554-.465-1.275-.698-2.164-.698-.896 0-1.624.233-2.184.698-.554.458-.831 1.056-.831 1.794s.277 1.34.831 1.805c.56.458 1.288.687 2.184.687Zm-1.836-7.619c.472.403 1.084.605 1.836.605s1.36-.202 1.825-.605c.472-.41.708-.94.708-1.589 0-.663-.236-1.2-.708-1.61-.465-.417-1.073-.626-1.825-.626-.759 0-1.374.209-1.846.626-.465.41-.697.947-.697 1.61 0 .649.236 1.179.707 1.589Zm15.518 9.68c-1.778 0-3.166-.684-4.164-2.051-.991-1.367-1.486-3.278-1.486-5.732 0-2.44.499-4.341 1.497-5.701 1.005-1.367 2.389-2.051 4.153-2.051 1.763 0 3.144.684 4.142 2.051.998 1.367 1.497 3.274 1.497 5.721 0 2.441-.499 4.345-1.497 5.712-.991 1.367-2.372 2.051-4.142 2.051Zm-2.195-3.63c.52.957 1.251 1.435 2.195 1.435.943 0 1.671-.478 2.184-1.435.519-.964.779-2.348.779-4.153 0-1.791-.26-3.162-.779-4.112-.52-.957-1.248-1.435-2.184-1.435-.937 0-1.668.478-2.195 1.435-.519.957-.779 2.328-.779 4.112 0 1.805.26 3.189.779 4.153Z" />
    <g filter="url(#f)">
      <path fill="#fff" d="M25-6h38v200H25z" />
    </g>
    <path fill="#3394E3" d="M32 0h24v83H32z" />
    <circle cx="44" cy="107" r="32" fill="#0179DD" />
    <path fill="#fff" d="M44.5 86 30 126.5 44.5 114 59 126.5 44.5 86Z" />
  </g>
  <defs>
    <radialGradient id="a" cx="0" cy="0" r="1"
      gradientTransform="rotate(139.669 13.046 61.818) scale(160.693)"
      gradientUnits="userSpaceOnUse">
      <stop stop-color="#FFCCD6" />
      <stop offset=".198" stop-color="#FFCCD6" />
      <stop offset=".204" stop-color="#E3E1DA" />
      <stop offset=".36" stop-color="#E3E1DA" />
      <stop offset=".36" stop-color="#9DE07B" />
      <stop offset=".713" stop-color="#9DE07B" />
      <stop offset=".713" stop-color="#E3E1DA" />
      <stop offset=".859" stop-color="#E3E1DA" />
      <stop offset=".86" stop-color="#F2D6D8" />
    </radialGradient>
    <radialGradient id="c" cx="0" cy="0" r="1"
      gradientTransform="rotate(139.669 13.046 61.818) scale(160.693)"
      gradientUnits="userSpaceOnUse">
      <stop stop-color="#FFCCD6" />
      <stop offset=".198" stop-color="#FFCCD6" />
      <stop offset=".204" stop-color="#E3E1DA" />
      <stop offset=".36" stop-color="#E3E1DA" />
      <stop offset=".36" stop-color="#9DE07B" />
      <stop offset=".713" stop-color="#9DE07B" />
      <stop offset=".713" stop-color="#E3E1DA" />
      <stop offset=".859" stop-color="#E3E1DA" />
      <stop offset=".86" stop-color="#F2D6D8" />
    </radialGradient>
    <filter id="d" width="200" height="200" x="80" y="-100" color-interpolation-filters="sRGB"
      filterUnits="userSpaceOnUse">
      <feFlood flood-opacity="0" result="BackgroundImageFix" />
      <feColorMatrix in="SourceAlpha" result="hardAlpha"
        values="0 0 0 0 0 0 0 0 0 0 0 0 0 0 0 0 0 0 127 0" />
      <feMorphology in="SourceAlpha" operator="dilate" radius="3" result="effect1_dropShadow_2_90" />
      <feOffset />
      <feColorMatrix values="0 0 0 0 0 0 0 0 0 0 0 0 0 0 0 0 0 0 0.09 0" />
      <feBlend in2="BackgroundImageFix" result="effect1_dropShadow_2_90" />
      <feBlend in="SourceGraphic" in2="effect1_dropShadow_2_90" result="shape" />
    </filter>
    <filter id="f" width="44" height="206" x="22" y="-9" color-interpolation-filters="sRGB"
      filterUnits="userSpaceOnUse">
      <feFlood flood-opacity="0" result="BackgroundImageFix" />
      <feColorMatrix in="SourceAlpha" result="hardAlpha"
        values="0 0 0 0 0 0 0 0 0 0 0 0 0 0 0 0 0 0 127 0" />
      <feMorphology in="SourceAlpha" operator="dilate" radius="3" result="effect1_dropShadow_2_90" />
      <feOffset />
      <feColorMatrix values="0 0 0 0 0 0 0 0 0 0 0 0 0 0 0 0 0 0 0.09 0" />
      <feBlend in2="BackgroundImageFix" result="effect1_dropShadow_2_90" />
      <feBlend in="SourceGraphic" in2="effect1_dropShadow_2_90" result="shape" />
    </filter>
    <linearGradient id="e" x1="132.552" x2="132.552" y1="113" y2="168.61"
      gradientUnits="userSpaceOnUse">
      <stop stop-color="#DE1D25" />
      <stop offset=".271" stop-color="#DE1D25" />
      <stop offset=".271" stop-color="#fff" />
      <stop offset=".324" stop-color="#fff" />
      <stop offset=".324" stop-color="#0079DC" />
      <stop offset="1" stop-color="#0079DC" />
    </linearGradient>
  </defs>
</svg>