<svg width="180" height="180" viewBox="0 0 180 180" fill="none" xmlns="http://www.w3.org/2000/svg">
  <path
    d="M0 64C0 41.5979 0 30.3968 4.35974 21.8404C8.19467 14.3139 14.3139 8.19467 21.8404 4.35974C30.3968 0 41.5979 0 64 0H116C138.402 0 149.603 0 158.16 4.35974C165.686 8.19467 171.805 14.3139 175.64 21.8404C180 30.3968 180 41.5979 180 64V116C180 138.402 180 149.603 175.64 158.16C171.805 165.686 165.686 171.805 158.16 175.64C149.603 180 138.402 180 116 180H64C41.5979 180 30.3968 180 21.8404 175.64C14.3139 171.805 8.19467 165.686 4.35974 158.16C0 149.603 0 138.402 0 116V64Z"
    fill="url(#paint0_linear_2_9)" />
  <circle cx="89" cy="90" r="78" fill="#2E2E2F" />
  <g filter="url(#filter0_d_2_9)">
    <path fill-rule="evenodd" clip-rule="evenodd"
      d="M91.9904 42.687L92.3327 50.6388C93.5065 50.7283 94.6668 50.8661 95.8116 51.0501L94.386 50.7216L97.4432 43.3271L96.9538 51.2499C97.9202 51.4328 98.8748 51.6489 99.8166 51.8968L98.9179 51.5706L102.853 44.6039L101.413 52.3512C102.15 52.5769 102.878 52.8223 103.597 53.0869L103.378 52.979L108.02 46.4618L105.792 53.9659C106.409 54.2334 107.018 54.5153 107.619 54.8112L113.001 48.9301L109.909 56.0278C110.524 56.3793 111.129 56.7458 111.724 57.127L117.612 51.9094L113.837 58.5735C114.401 58.9858 114.955 59.4117 115.498 59.8509L121.905 55.4412L117.415 61.5003C117.961 61.9983 118.492 62.5105 119.011 63.0363L125.723 59.3871L120.703 64.8577C121.188 65.4116 121.659 65.9784 122.115 66.5574L129.105 63.799L123.57 68.5204C124.015 69.1588 124.443 69.8102 124.853 70.4738L131.93 68.5067L126.05 72.5418C126.423 73.2288 126.776 73.9274 127.11 74.6369L134.226 73.5697L128.048 76.7799C128.349 77.5265 128.63 78.2838 128.89 79.0509L135.925 78.8623L129.563 81.2362C129.79 82.0523 129.993 82.8784 130.171 83.7137L137.002 84.246L130.577 85.9029C130.71 86.7458 130.819 87.5971 130.901 88.456L137.459 89.7861L131.053 90.6252C131.081 91.252 131.095 91.8823 131.095 92.5159C131.095 92.7854 131.092 93.0543 131.087 93.3226L137.289 95.2737L130.995 95.4347C130.932 96.349 130.84 97.2553 130.72 98.1526L136.48 100.774L130.397 100.184C130.223 101.123 130.019 102.052 129.784 102.969L135.072 106.08L129.242 104.89C128.958 105.814 128.642 106.725 128.297 107.621L133.04 111.254L127.556 109.416C127.153 110.332 126.718 111.231 126.253 112.111L130.467 116.104L125.333 113.761C124.821 114.632 124.279 115.483 123.707 116.313L127.316 120.684L122.629 117.808C122.002 118.637 121.346 119.442 120.661 120.222L123.711 124.826L119.445 121.549C118.721 122.305 117.969 123.035 117.19 123.736L119.606 128.574L115.858 124.886C115.039 125.564 114.193 126.212 113.323 126.827L115.097 131.826L111.895 127.794C110.985 128.384 110.05 128.939 109.093 129.458L110.31 134.513L107.589 130.235C106.613 130.715 105.616 131.157 104.599 131.561L105.182 136.66L103.034 132.147C101.995 132.513 100.937 132.839 99.8626 133.123L99.9105 138.194L98.2566 133.514C97.1855 133.752 96.099 133.949 94.9987 134.104L94.43 139.125L93.3648 134.301C92.267 134.412 91.1567 134.481 90.0356 134.506L88.9479 139.425L88.3912 134.51C87.2774 134.492 86.174 134.43 85.0829 134.327L83.399 139.091L83.4451 134.139C82.3396 133.991 81.2478 133.799 80.1713 133.566L77.9912 138.143L78.5589 133.183C77.4931 132.908 76.4438 132.592 75.4126 132.237L72.6618 136.561L73.8406 131.66C72.8194 131.262 71.8176 130.825 70.837 130.351L67.609 134.413L69.3238 129.581C68.3758 129.074 67.4495 128.532 66.5466 127.956L62.7759 131.667L65.1089 126.998C64.2406 126.392 63.3963 125.755 62.5776 125.088L58.2899 128.384L61.2319 123.944C60.4483 123.248 59.6909 122.524 58.9614 121.773L54.2547 124.661L57.7305 120.45C57.053 119.69 56.4026 118.905 55.7811 118.097L50.6281 120.448L54.684 116.603C54.1056 115.778 53.5562 114.932 53.0371 114.065L47.5405 115.908L52.0991 112.416C51.6371 111.559 51.2041 110.684 50.8012 109.792L44.9617 110.983L50.0402 107.997C49.6856 107.104 49.3608 106.195 49.0671 105.272L42.9819 105.862L48.5054 103.35C48.2683 102.459 48.0597 101.557 47.8807 100.644L41.5848 100.482L47.5338 98.6106C47.4031 97.7116 47.3009 96.8033 47.2281 95.8867L40.8158 95.0457L47.1131 93.7685C47.1009 93.3524 47.0948 92.9349 47.0948 92.5159C47.0948 92.059 47.1021 91.6038 47.1166 91.1505L40.6729 89.4885L47.2419 88.976C47.3142 88.1097 47.4128 87.2508 47.5369 86.4001L41.1544 84.0193L47.9178 84.2008C48.0805 83.3909 48.2664 82.5894 48.4749 81.7971L42.2732 78.5739L49.1178 79.6011C49.3635 78.84 49.6304 78.0883 49.9176 77.3469L44.0089 73.293L50.8247 75.1876C51.1527 74.4645 51.5005 73.7524 51.8675 73.0518L46.3027 68.3049L53.0389 70.9635C53.4247 70.3194 53.8273 69.6864 54.2461 69.0653L49.1889 63.5539L55.6714 67.0784C56.1261 66.4819 56.5964 65.8979 57.0817 65.327L52.5523 59.2145L58.7488 63.4792C59.2392 62.9669 59.7424 62.467 60.2579 61.98L56.439 55.2401L62.1481 60.2985C62.6966 59.8393 63.2569 59.3938 63.8286 58.9626L60.6976 51.7748L65.9209 57.4823C66.4858 57.1078 67.0604 56.7466 67.6441 56.3992L65.3831 48.7834L69.9129 55.1421C70.5375 54.8209 71.1712 54.5149 71.8135 54.2245L71.7789 54.2386L70.3156 46.3721L74.1937 53.236C75.1053 52.89 76.0321 52.5748 76.9728 52.2917L76.0504 52.5051L75.5566 44.5189L78.5839 51.8419C79.7653 51.5375 80.9668 51.2832 82.1861 51.0814L80.5632 51.2809L80.907 43.2868L83.1659 50.9311C85.1029 50.6574 87.0823 50.5159 89.0948 50.5159C89.9344 50.5159 90.7682 50.5405 91.5956 50.5891L89.7229 50.3605L91.9904 42.687ZM89.0948 58.5159C70.3171 58.5159 55.0948 73.7382 55.0948 92.5159C55.0948 111.294 70.3171 126.516 89.0948 126.516C107.872 126.516 123.095 111.294 123.095 92.5159C123.095 73.7382 107.872 58.5159 89.0948 58.5159ZM86.5948 42.5159L88.0948 50.5159H85.0948L86.5948 42.5159Z"
      fill="url(#paint1_linear_2_9)" />
    <path fill-rule="evenodd" clip-rule="evenodd"
      d="M84.5719 17L86.4098 28.0354C87.2614 28.0012 88.1173 27.984 88.9772 27.984L89.784 27.99L93.0236 17.0287L93.5019 28.144C94.6699 28.2269 95.8291 28.3416 96.9787 28.4873L101.314 18.002L100.631 29.0597C101.759 29.2707 102.876 29.5117 103.982 29.7819L109.54 19.9432L107.529 30.7598C108.663 31.1088 109.784 31.489 110.89 31.8994L117.395 22.768L114.277 33.2698C115.343 33.7379 116.394 34.2347 117.428 34.7592L124.968 26.5208L120.623 36.4967C121.663 37.1021 122.684 37.7365 123.685 38.3986L131.98 31.0505L126.639 40.4763C127.587 41.1837 128.513 41.9172 129.418 42.6757L138.507 36.4202L132.104 45.0594C132.995 45.8958 133.861 46.7578 134.701 47.6442L144.311 42.4197L137.08 50.2993C137.858 51.2177 138.61 52.1586 139.334 53.121L149.453 49.1275L141.385 56.0087C142.076 57.0417 142.737 58.0964 143.367 59.1714L153.748 56.2852L145.058 62.2501C145.617 63.3402 146.146 64.4488 146.643 65.5747L157.238 63.983L147.962 68.8049C148.397 69.9594 148.798 71.1301 149.165 72.3157L159.823 72.03L150.1 75.6569C150.407 76.8877 150.679 78.1328 150.913 79.391L161.459 80.2154L151.45 82.796C151.611 84.0338 151.735 85.2828 151.823 86.5421L162.155 88.6386L151.969 89.9721C151.975 90.3088 151.977 90.6461 151.977 90.984C151.977 91.9417 151.956 92.8944 151.914 93.8416L161.896 96.982L151.67 97.2433C151.545 98.5168 151.381 99.7792 151.181 101.029L160.667 105.344L150.553 104.364C150.276 105.646 149.96 106.914 149.606 108.166L158.525 113.412L148.6 111.387C148.182 112.608 147.728 113.812 147.239 114.997L155.435 121.279L145.872 118.073C145.304 119.263 144.7 120.433 144.062 121.58L151.523 128.653L142.353 124.467C141.663 125.563 140.941 126.637 140.188 127.687L146.733 135.616L138.161 130.357C137.335 131.387 136.477 132.392 135.589 133.368L141.253 141.913L133.273 135.782C132.351 136.693 131.402 137.577 130.426 138.43L135.01 147.612L127.849 140.565C126.83 141.365 125.787 142.134 124.719 142.871L128.156 152.556L121.914 144.699C120.79 145.389 119.644 146.045 118.475 146.666L120.876 156.642L115.477 148.156C114.307 148.699 113.117 149.208 111.909 149.68L113.081 159.906L108.753 150.818C107.508 151.229 106.247 151.602 104.969 151.936L105.065 162.238L101.695 152.7C100.443 152.956 99.1777 153.176 97.9001 153.357L96.7328 163.653L94.5417 153.742C93.2527 153.854 91.9525 153.928 90.6423 153.962L88.3978 164.11L87.2471 153.961C85.9697 153.926 84.7019 153.854 83.4446 153.744L79.9611 163.602L80.057 153.357C78.7736 153.175 77.5027 152.955 76.2455 152.697L71.7391 162.16L72.9134 151.918C71.6947 151.597 70.4904 151.241 69.3017 150.851L63.6362 159.756L66.0602 149.686C64.8715 149.222 63.7003 148.722 62.5479 148.189L55.954 156.49L59.4452 146.648C58.3535 146.067 57.2809 145.456 56.2285 144.814L48.6057 152.314L53.2999 142.915C52.2917 142.222 51.3048 141.499 50.3402 140.749L41.785 147.323L47.6244 138.514C46.6894 137.699 45.7787 136.858 44.8935 135.991L35.65 141.662L42.4341 133.443C41.6251 132.557 40.8412 131.648 40.0833 130.716L30.1361 135.257L37.9117 127.888C37.1971 126.901 36.5104 125.892 35.8528 124.863L25.4416 128.355L34.0097 121.79C33.4326 120.762 32.8834 119.717 32.3633 118.655L21.5208 120.867L30.8696 115.368C30.4059 114.264 29.9727 113.145 29.5711 112.01L18.5108 113.081L28.4601 108.555C28.1383 107.445 27.8461 106.322 27.5847 105.187L16.3866 104.901L26.8684 101.603C26.6718 100.445 26.5068 99.2763 26.3743 98.0976L15.2173 96.6353L26.0701 94.4346C26.009 93.3031 25.9778 92.1637 25.9772 91.0171L15 88.1861L26.0819 87.3213C26.1488 86.1529 26.2477 84.993 26.3775 83.8424L15.7322 79.8706L26.9017 80.17C27.0945 79.0557 27.3165 77.9515 27.567 76.8582L17.4331 71.5915L28.5064 73.254C28.8219 72.1762 29.1654 71.1104 29.5361 70.0574L20.0722 63.5623L30.883 66.5682C31.3286 65.5092 31.8023 64.465 32.3032 63.4364L23.5597 55.9783L34.0445 60.1163C34.5893 59.1489 35.1589 58.1974 35.7524 57.2625L27.9478 48.7549L37.864 54.1461C38.5303 53.2232 39.221 52.3191 39.9351 51.4347L33.0617 42.1573L42.3877 48.5755C43.1304 47.7601 43.8943 46.9642 44.6783 46.1888L38.971 36.1146L47.4397 43.6158C48.293 42.867 49.1667 42.1408 50.0598 41.4383L45.4458 30.8459L53.0894 39.1981C53.9959 38.5687 54.9198 37.9625 55.8602 37.3803L52.5696 26.2977L59.1199 35.4945C60.1221 34.9542 61.1405 34.4402 62.1744 33.9534L60.069 22.6315L65.6191 32.4561C66.6488 32.0448 67.692 31.6598 68.7477 31.3021L68.0376 19.814L72.3339 30.2058C73.4371 29.9044 74.5523 29.6322 75.6788 29.3902L76.1723 17.9407L79.3559 28.7141C80.4577 28.5452 81.569 28.4049 82.6889 28.2939L84.5719 17ZM89.7522 97.9601L69.5202 133.005C69.2602 133.455 69.0684 133.912 68.9449 134.374C67.245 140.736 76.6288 143.633 82.9847 145.358C86.9621 146.437 91.0793 147.096 95.1758 146.645C115.188 144.441 132.025 131.692 140.009 114.076C141.126 111.613 141.506 108.895 141.397 106.192C140.8 99.1629 138.593 95.5842 134.776 95.4564L134.562 95.4528L94.4021 95.452C93.2682 96.8263 91.62 97.7605 89.7522 97.9601ZM95.3473 88.0444L134.562 88.0446C138.511 88.0446 140.789 84.4648 141.397 77.305C141.514 73.613 141.001 69.8925 139.389 66.5692C131.213 49.7192 114.838 37.5854 95.4495 35.354C91.1761 34.8622 86.881 35.596 82.7518 36.8017C78.3184 38.0961 73.729 39.7087 70.7695 43.2544C68.6891 45.7469 68.2381 48.0973 69.4164 50.3056L69.5202 50.4925L88.8662 84.0013C88.9107 84.0004 88.9553 84 89 84C91.8098 84 94.233 85.6555 95.3473 88.0444ZM82.6499 88.0504L63.1045 54.1966C61.3455 51.15 57.7888 50.6724 52.4343 52.7639C47.3383 55.3562 42.6906 58.9405 39.9258 63.9451C35.4976 71.9605 32.9772 81.1779 32.9772 90.984C32.9772 103.868 37.3282 115.736 44.6411 125.198C46.1738 127.182 48.1993 128.711 50.4232 129.867C56.7888 132.847 60.9791 132.72 62.9946 129.484L63.1045 129.301L83.0692 94.7201C82.3918 93.6424 82 92.3669 82 91C82 89.9462 82.2329 88.9468 82.6499 88.0504ZM93 91C93 93.2091 91.2091 95 89 95C86.7909 95 85 93.2091 85 91C85 88.7909 86.7909 87 89 87C91.2091 87 93 88.7909 93 91Z"
      fill="url(#paint2_linear_2_9)" />
  </g>
  <defs>
    <filter id="filter0_d_2_9" x="11" y="13" width="155.155" height="155.11"
      filterUnits="userSpaceOnUse" color-interpolation-filters="sRGB">
      <feFlood flood-opacity="0" result="BackgroundImageFix" />
      <feColorMatrix in="SourceAlpha" type="matrix"
        values="0 0 0 0 0 0 0 0 0 0 0 0 0 0 0 0 0 0 127 0" result="hardAlpha" />
      <feOffset />
      <feGaussianBlur stdDeviation="2" />
      <feColorMatrix type="matrix" values="0 0 0 0 0 0 0 0 0 0 0 0 0 0 0 0 0 0 0.181823 0" />
      <feBlend mode="normal" in2="BackgroundImageFix" result="effect1_dropShadow_2_9" />
      <feBlend mode="normal" in="SourceGraphic" in2="effect1_dropShadow_2_9" result="shape" />
    </filter>
    <linearGradient id="paint0_linear_2_9" x1="90" y1="0" x2="90" y2="180"
      gradientUnits="userSpaceOnUse">
      <stop stop-color="#E4E4E9" />
      <stop offset="1" stop-color="#8F8F94" />
    </linearGradient>
    <linearGradient id="paint1_linear_2_9" x1="40.6729" y1="42.5159" x2="40.6729" y2="139.425"
      gradientUnits="userSpaceOnUse">
      <stop stop-color="#B0B0B4" />
      <stop offset="1" stop-color="#B4B4B9" />
    </linearGradient>
    <linearGradient id="paint2_linear_2_9" x1="15" y1="17" x2="15" y2="164.11"
      gradientUnits="userSpaceOnUse">
      <stop stop-color="#D8D8DD" />
      <stop offset="1" stop-color="#9C9CA0" />
    </linearGradient>
  </defs>
</svg>