<?xml version="1.0" encoding="UTF-8"?>
<svg version="1.1" xmlns="http://www.w3.org/2000/svg" width="160" height="160">
<path d="M0 0 C0.84929077 -0.00571014 1.69858154 -0.01142029 2.5736084 -0.01730347 C3.95913406 -0.01898026 3.95913406 -0.01898026 5.37265015 -0.02069092 C6.35203552 -0.02565582 7.3314209 -0.03062073 8.34048462 -0.03573608 C11.58217065 -0.05034555 14.82380769 -0.05715879 18.06552124 -0.06268311 C20.32271323 -0.06843689 22.5799052 -0.07419459 24.83709717 -0.07995605 C29.57323433 -0.09046351 34.30935453 -0.09630741 39.04550171 -0.09979248 C45.09791604 -0.10526739 51.1501043 -0.12927522 57.20244789 -0.15776443 C61.86776368 -0.17644302 66.53302568 -0.18159926 71.1983757 -0.18312836 C73.42857469 -0.18614515 75.65877296 -0.19414062 77.88893509 -0.20731354 C81.01909507 -0.22447809 84.14871146 -0.22246799 87.27890015 -0.21600342 C88.19043854 -0.2252182 89.10197693 -0.23443298 90.0411377 -0.243927 C100.13726967 -0.17901558 108.9618713 2.56156309 116.71395874 9.14044189 C122.97653521 15.74486206 126.81730593 24.25453977 126.85440063 33.42648315 C126.86011078 34.27577393 126.86582092 35.1250647 126.8717041 36.00009155 C126.87338089 37.38561722 126.87338089 37.38561722 126.87509155 38.7991333 C126.88005646 39.77851868 126.88502136 40.75790405 126.89013672 41.76696777 C126.90474619 45.0086538 126.91155942 48.25029084 126.91708374 51.49200439 C126.92283752 53.74919638 126.92859523 56.00638836 126.93435669 58.26358032 C126.94486414 62.99971748 126.95070805 67.73583769 126.95419312 72.47198486 C126.95966803 78.5243992 126.98367585 84.57658745 127.01216507 90.62893105 C127.03084365 95.29424684 127.0359999 99.95950884 127.03752899 104.62485886 C127.04054579 106.85505785 127.04854126 109.08525611 127.06171417 111.31541824 C127.07887873 114.44557822 127.07686862 117.57519461 127.07040405 120.7053833 C127.07961884 121.61692169 127.08883362 122.52846008 127.09832764 123.46762085 C127.03341622 133.56375282 124.29283755 142.38835445 117.71395874 150.14044189 C111.10953857 156.40301837 102.59986086 160.24378909 93.42791748 160.28088379 C92.57862671 160.28659393 91.72933594 160.29230408 90.85430908 160.29818726 C89.46878342 160.29986404 89.46878342 160.29986404 88.05526733 160.30157471 C87.07588196 160.30653961 86.09649658 160.31150452 85.08743286 160.31661987 C81.84574683 160.33122934 78.60410979 160.33804258 75.36239624 160.34356689 C73.10520425 160.34932068 70.84801228 160.35507838 68.59082031 160.36083984 C63.85468315 160.3713473 59.11856295 160.3771912 54.38241577 160.38067627 C48.33000144 160.38615118 42.27781318 160.41015901 36.22546959 160.43864822 C31.5601538 160.4573268 26.8948918 160.46248305 22.22954178 160.46401215 C19.99934279 160.46702894 17.76914452 160.47502441 15.53898239 160.48819733 C12.40882241 160.50536188 9.27920602 160.50335178 6.14901733 160.49688721 C4.78170975 160.51070938 4.78170975 160.51070938 3.38677979 160.52481079 C-6.70935219 160.45989937 -15.53395382 157.7193207 -23.28604126 151.14044189 C-29.54861773 144.53602173 -33.38938845 136.02634401 -33.42648315 126.85440063 C-33.4321933 126.00510986 -33.43790344 125.15581909 -33.44378662 124.28079224 C-33.44490448 123.35710846 -33.44602234 122.43342468 -33.44717407 121.48175049 C-33.45213898 120.50236511 -33.45710388 119.52297974 -33.46221924 118.51391602 C-33.47682871 115.27222999 -33.48364194 112.03059295 -33.48916626 108.78887939 C-33.49492004 106.53168741 -33.50067775 104.27449543 -33.50643921 102.01730347 C-33.51694666 97.28116631 -33.52279057 92.5450461 -33.52627563 87.80889893 C-33.53175055 81.75648459 -33.55575837 75.70429634 -33.58424759 69.65195274 C-33.60292617 64.98663695 -33.60808242 60.32137495 -33.60961151 55.65602493 C-33.61262831 53.42582594 -33.62062378 51.19562767 -33.63379669 48.96546555 C-33.65096125 45.83530557 -33.64895114 42.70568917 -33.64248657 39.57550049 C-33.65170135 38.6639621 -33.66091614 37.75242371 -33.67041016 36.81326294 C-33.60549874 26.71713097 -30.86492006 17.89252934 -24.28604126 10.14044189 C-17.68162109 3.87786542 -9.17194338 0.0370947 0 0 Z " fill="#1F79CB" transform="translate(33.286041259765625,-0.14044189453125)"/>
<path d="M0 0 C6.83770373 3.58822618 12.81928849 8.69477183 16.33984375 15.65234375 C18.60644428 23.09974549 18.48301214 32.34947883 15.5 39.5625 C13.26952709 43.70594078 10.48473455 48.28888273 6.1875 50.4375 C6.03260938 52.41235545 5.96523479 54.39427389 5.9375 56.375 C5.42052402 64.63754588 2.40192582 70.84924406 -3.8125 76.375 C-9.09269309 80.00513275 -13.04010781 81.80903048 -19.5012207 81.87329102 C-20.81310867 81.89243057 -22.12499664 81.91157013 -23.47663879 81.93128967 C-24.89718288 81.935877 -26.31773145 81.93921819 -27.73828125 81.94140625 C-29.21030462 81.95105954 -30.68232516 81.96115291 -32.15434265 81.97166443 C-35.23504297 81.98958604 -38.3154915 81.99518969 -41.39624023 81.9934082 C-45.32384801 81.99310377 -49.24982335 82.03403134 -53.17704487 82.08572483 C-56.21678425 82.11925662 -59.25613618 82.12516068 -62.29604149 82.12357903 C-63.74281623 82.12709474 -65.18960365 82.14022643 -66.63619423 82.16357613 C-75.48228747 82.29298755 -82.07130338 81.67956798 -88.8125 75.4375 C-94.37764419 69.44426779 -95.32720978 64.77890853 -95.19140625 56.703125 C-94.46854207 50.47307909 -91.30460575 46.59103265 -86.75 42.5 C-84.25669495 40.74938156 -82.78754886 39.78077487 -79.8125 39.4375 C-79.915625 38.48875 -80.01875 37.54 -80.125 36.5625 C-80.08741439 30.37340219 -77.00330353 24.99262784 -73.05078125 20.3828125 C-67.0705913 14.73013802 -60.08589143 11.33949864 -51.8125 10.9375 C-46.34193748 11.14590238 -41.70475649 13.10587137 -36.8125 15.4375 C-36.5134375 14.66277344 -36.214375 13.88804688 -35.90625 13.08984375 C-32.9761177 5.98427293 -27.3613893 2.89233977 -20.8125 -0.5625 C-14.3025175 -2.73249417 -6.37434833 -2.60313701 0 0 Z " fill="#C5DBE9" transform="translate(118.8125,39.5625)"/>
<path d="M0 0 C6.83770373 3.58822618 12.81928849 8.69477183 16.33984375 15.65234375 C18.60644428 23.09974549 18.48301214 32.34947883 15.5 39.5625 C13.0124777 44.16706256 10.31022296 48.72992568 5.1875 50.4375 C4.94515625 49.91800781 4.7028125 49.39851563 4.453125 48.86328125 C0.49376259 40.62476177 -3.53402792 36.40140928 -11.8125 32.4375 C-14.67888553 31.30635606 -14.67888553 31.30635606 -17.30078125 31.4375 C-20.34458354 31.4375 -22.87624039 31.26319137 -25.8125 30.4375 C-27.88639502 28.35067008 -29.12689282 26.2991727 -30.52734375 23.71875 C-31.75701476 21.53599052 -32.86370112 20.29111103 -34.75 18.6875 C-36.8125 16.4375 -36.8125 16.4375 -36.9375 14 C-33.66286598 6.5411114 -27.82249207 3.08507215 -20.8125 -0.5625 C-14.3025175 -2.73249417 -6.37434833 -2.60313701 0 0 Z " fill="#F6D14A" transform="translate(118.8125,39.5625)"/>
<path d="M0 0 C0.33 0 0.66 0 1 0 C1 1.98 1 3.96 1 6 C-6.94175454 9.42317006 -13.49496867 9.00415021 -22 8 C-22 7.67 -22 7.34 -22 7 C-20.39602723 6.83147753 -18.7918131 6.66525114 -17.1875 6.5 C-16.29417969 6.4071875 -15.40085937 6.314375 -14.48046875 6.21875 C-12 6 -12 6 -9 6 C-8.67 5.67 -8.34 5.34 -8 5 C-7.21625 4.71125 -6.4325 4.4225 -5.625 4.125 C-3.06281977 3.02692276 -1.84087755 2.02496531 0 0 Z " fill="#D2E0D7" transform="translate(123,87)"/>
<path d="M0 0 C1.32 0.66 2.64 1.32 4 2 C3.525625 2.639375 3.05125 3.27875 2.5625 3.9375 C0.76421864 7.46213146 0.52167951 10.20925982 0.30859375 14.109375 C0.20675781 14.73328125 0.10492188 15.3571875 0 16 C-0.66 16.33 -1.32 16.66 -2 17 C-3.39455253 6.36653696 -3.39455253 6.36653696 -1 2 C-0.67 1.34 -0.34 0.68 0 0 Z " fill="#F3F1D8" transform="translate(81,55)"/>
<path d="M0 0 C0.33 1.32 0.66 2.64 1 4 C-4.625 7 -4.625 7 -8 7 C-6.47974746 3.95949492 -3.80760674 2.81324602 -1 1 C-0.67 0.67 -0.34 0.34 0 0 Z " fill="#DCE4CB" transform="translate(123,87)"/>
</svg>
