<svg xmlns="http://www.w3.org/2000/svg" width="78" height="72" fill="none" viewBox="0 0 78 72">
  <rect width="78" height="72" fill="#FF3B3A" rx="36"/>
  <path fill="#fff" d="M26.008 53V23.867h-.375l-8.601 6.235v-4.454l9-6.468h4.195V53h-4.219Zm13.39-24.305c0-3 1.015-5.468 3.047-7.406 2.047-1.937 4.64-2.906 7.78-2.906 3.032 0 5.571.914 7.618 2.742 2.063 1.813 3.094 4.063 3.094 6.75 0 1.766-.5 3.5-1.5 5.203-1 1.703-2.883 4.04-5.649 7.008l-8.132 8.742v.375h15.843V53H39.61v-2.906L51.304 37.32c2.172-2.36 3.617-4.156 4.336-5.39.719-1.235 1.078-2.532 1.078-3.89 0-1.688-.64-3.102-1.922-4.243-1.265-1.156-2.828-1.735-4.687-1.735-1.985 0-3.586.61-4.805 1.829-1.219 1.218-1.828 2.82-1.828 4.804v.024h-4.078v-.024Z"/>
</svg>
