<svg xmlns="http://www.w3.org/2000/svg" width="180" height="180" fill="none" viewBox="0 0 180 180">
  <path fill="url(#a)" d="M0 64c0-22.402 0-33.603 4.36-42.16A40 40 0 0 1 21.84 4.36C30.397 0 41.598 0 64 0h52c22.402 0 33.603 0 42.16 4.36a40.001 40.001 0 0 1 17.48 17.48C180 30.397 180 41.598 180 64v52c0 22.402 0 33.603-4.36 42.16a40.003 40.003 0 0 1-17.48 17.48C149.603 180 138.402 180 116 180H64c-22.402 0-33.603 0-42.16-4.36a40.001 40.001 0 0 1-17.48-17.48C0 149.603 0 138.402 0 116V64Z"/>
  <path fill="#fff" fill-rule="evenodd" d="M132 101.2v-72c0-2.667-2-3.667-6-3-4 .667-14.667 2.667-32 6-12.667 2.667-20.667 4.333-24 5-1.79.358-3.195.908-4.216 1.65C64.177 40.02 64 42.213 64 44.2v65c0 6.667-3.667 10-11 10-11 0-17 8-17 15s3 14 17 14 18-10 18-22v-58c0-2 1.333-3.333 4-4 2.667-.667 17.667-3.667 45-9 3.333-.667 5 .667 5 4v38c0 4 0 10-10 10s-18 5-18 14 3 15 18 15 17-14 17-22v-13Z" clip-rule="evenodd"/>
  <defs>
    <linearGradient id="a" x1="90" x2="90" y1="0" y2="180" gradientUnits="userSpaceOnUse">
      <stop stop-color="#FB5B73"/>
      <stop offset="1" stop-color="#FA233B"/>
    </linearGradient>
  </defs>
</svg>
