<svg xmlns="http://www.w3.org/2000/svg" width="180" height="180" fill="none" viewBox="0 0 180 180">
  <path fill="url(#a)" d="M0 64c0-22.402 0-33.603 4.36-42.16A40 40 0 0 1 21.84 4.36C30.397 0 41.598 0 64 0h52c22.402 0 33.603 0 42.16 4.36a40.001 40.001 0 0 1 17.48 17.48C180 30.397 180 41.598 180 64v52c0 22.402 0 33.603-4.36 42.16a40.003 40.003 0 0 1-17.48 17.48C149.603 180 138.402 180 116 180H64c-22.402 0-33.603 0-42.16-4.36a40.001 40.001 0 0 1-17.48-17.48C0 149.603 0 138.402 0 116V64Z"/>
  <path fill="#fff" d="M90 141c36.451 0 66-24.624 66-55s-29.549-55-66-55c-36.45 0-66 24.624-66 55 0 19.318 11.951 36.31 30.028 46.121 1.049.569 1.869 1.548 1.917 2.74.09 2.201-.556 4.749-2.945 7.139-6 6-7 6-7 6s12-1 20-6a22.297 22.297 0 0 1 3.162-1.628c2.362-.993 4.993-.924 7.52-.492A79.183 79.183 0 0 0 90 141Z"/>
  <defs>
    <linearGradient id="a" x1="90" x2="90" y1="0" y2="180" gradientUnits="userSpaceOnUse">
      <stop stop-color="#fff"/>
      <stop offset="0" stop-color="#5CF776"/>
      <stop offset="1" stop-color="#0BBC28"/>
    </linearGradient>
  </defs>
</svg>
