<svg xmlns="http://www.w3.org/2000/svg" width="180" height="180" fill="none" viewBox="0 0 180 180">
  <path fill="url(#a)" d="M0 64c0-22.402 0-33.603 4.36-42.16A40 40 0 0 1 21.84 4.36C30.397 0 41.598 0 64 0h52c22.402 0 33.603 0 42.16 4.36a40.001 40.001 0 0 1 17.48 17.48C180 30.397 180 41.598 180 64v52c0 22.402 0 33.603-4.36 42.16a40.003 40.003 0 0 1-17.48 17.48C149.603 180 138.402 180 116 180H64c-22.402 0-33.603 0-42.16-4.36a40.001 40.001 0 0 1-17.48-17.48C0 149.603 0 138.402 0 116V64Z"/>
  <path fill="#fff" fill-rule="evenodd" d="M90 99c6.189 0 10.716 2.137 13.581 6.41l.197.301a8.013 8.013 0 0 1 1.254 4.192c.084 6.219-.028 11.847-.338 16.885l-.104 1.571a93.01 93.01 0 0 1-.057.771l-.124 1.512C102.757 149.547 97.954 159 90 159c-8.289 0-13.156-10.265-14.601-30.796l-.102-1.56c-.032-.526-.062-1.058-.09-1.597l-.075-1.636a239.459 239.459 0 0 1-.175-12.531l.011-.977a8.002 8.002 0 0 1 1.254-4.192C79.075 101.237 83.667 99 90 99Zm0-36c8.284 0 15 6.716 15 15 0 8.284-6.716 15-15 15-8.284 0-15-6.716-15-15 0-8.284 6.716-15 15-15Z" clip-rule="evenodd"/>
  <path fill="#fff" d="M90 40c23.748 0 43 19.252 43 43 0 15.708-8.423 29.449-20.999 36.953v-11.03C119.342 102.686 124 93.387 124 83c0-18.778-15.222-34-34-34S56 64.222 56 83c0 10.388 4.658 19.687 12 25.924v11.029C55.423 112.45 47 98.709 47 83c0-23.748 19.252-43 43-43Z"/>
  <path fill="#fff" d="M90 19c35.346 0 64 28.654 64 64 0 28.566-18.715 52.76-44.553 60.992l1.106-9.961C130.747 125.89 145 106.109 145 83c0-30.376-24.624-55-55-55S35 52.624 35 83c0 23.11 14.253 42.891 34.448 51.032l1.107 9.96C44.715 135.762 26 111.567 26 83c0-35.346 28.654-64 64-64Z"/>
  <defs>
    <linearGradient id="a" x1="90" x2="90" y1="0" y2="180" gradientUnits="userSpaceOnUse">
      <stop stop-color="#D56DFC"/>
      <stop offset="1" stop-color="#842CC2"/>
    </linearGradient>
  </defs>
</svg>
